<svg width="6" height="8" viewBox="0 0 6 8" fill="none" xmlns="http://www.w3.org/2000/svg">
<path d="M6 3C6 4.65675 3 7.5 3 7.5C3 7.5 0 4.65675 0 3C0 2.20435 0.316071 1.44129 0.87868 0.87868C1.44129 0.316071 2.20435 0 3 0C3.79565 0 4.55871 0.316071 5.12132 0.87868C5.68393 1.44129 6 2.20435 6 3Z" fill="#FA712D"/>
<path d="M2.9998 3.29996C3.11915 3.29996 3.23361 3.25255 3.318 3.16816C3.40239 3.08377 3.4498 2.96931 3.4498 2.84996C3.4498 2.73062 3.40239 2.61616 3.318 2.53177C3.23361 2.44737 3.11915 2.39996 2.9998 2.39996C2.88046 2.39996 2.766 2.44737 2.68161 2.53177C2.59722 2.61616 2.5498 2.73062 2.5498 2.84996C2.5498 2.96931 2.59722 3.08377 2.68161 3.16816C2.766 3.25255 2.88046 3.29996 2.9998 3.29996Z" fill="white" stroke="white" stroke-width="1.25" stroke-linecap="round" stroke-linejoin="round"/>
</svg>
