<svg width="12" height="15" viewBox="0 0 12 15" fill="none" xmlns="http://www.w3.org/2000/svg">
<path d="M9.17408 7.50004H2.47766M9.17408 7.50004H10.346C10.4792 7.50004 10.6069 7.55295 10.7011 7.64714C10.7953 7.74133 10.8482 7.86907 10.8482 8.00227V13.6942C10.8482 13.8274 10.7953 13.9552 10.7011 14.0494C10.6069 14.1435 10.4792 14.1965 10.346 14.1965H1.30579C1.17259 14.1965 1.04485 14.1435 0.950659 14.0494C0.856472 13.9552 0.803558 13.8274 0.803558 13.6942V8.00227C0.803558 7.86907 0.856472 7.74133 0.950659 7.64714C1.04485 7.55295 1.17259 7.50004 1.30579 7.50004H2.47766H9.17408ZM9.17408 7.50004V4.15183C9.17408 3.03604 8.50444 0.80362 5.82587 0.80362C3.14731 0.80362 2.47766 3.03604 2.47766 4.15183V7.50004H9.17408Z" stroke="#252B5C" stroke-width="1.6" stroke-linecap="round" stroke-linejoin="round"/>
</svg>
