<svg width="20" height="20" viewBox="0 0 20 20" fill="none" xmlns="http://www.w3.org/2000/svg">
<path d="M7.52888 3.82181L8.7645 5.05742L7.52888 3.82181ZM11.2357 7.52866L12.4714 8.76427L11.2357 7.52866ZM14.9426 11.2355L16.1782 12.4711L14.9426 11.2355ZM1.3508 9.99989C1.0231 10.3276 0.838994 10.7721 0.838994 11.2355C0.838994 11.6989 1.0231 12.1434 1.3508 12.4711L3.20423 14.3245C3.53193 13.9968 3.9764 13.8127 4.43984 13.8127C4.90329 13.8127 5.34775 13.9968 5.67546 14.3245C6.00317 14.6523 6.18727 15.0967 6.18727 15.5602C6.18727 16.0236 6.00317 16.4681 5.67546 16.7958L7.52889 18.6492C7.85659 18.9769 8.30106 19.161 8.7645 19.161C9.22795 19.161 9.67241 18.9769 10.0001 18.6492L18.6494 9.99989C18.9771 9.67218 19.1612 9.22772 19.1612 8.76427C19.1612 8.30083 18.9771 7.85636 18.6494 7.52866L16.796 5.67523C16.4683 6.00294 16.0238 6.18704 15.5604 6.18704C15.0969 6.18704 14.6525 6.00294 14.3248 5.67523C13.9971 5.34753 13.813 4.90306 13.813 4.43961C13.813 3.97617 13.9971 3.5317 14.3248 3.204L12.4713 1.35057C12.1436 1.02287 11.6992 0.838765 11.2357 0.838765C10.7723 0.838765 10.3278 1.02287 10.0001 1.35057L1.3508 9.99989Z" stroke="#252B5C" stroke-width="1.6" stroke-linecap="round" stroke-linejoin="round"/>
</svg>
