<svg width="17" height="17" viewBox="0 0 17 17" fill="none" xmlns="http://www.w3.org/2000/svg">
<path d="M5.08612 4.23296H11.9134M16.1804 4.23296H11.9134H16.1804ZM0.819072 4.23296H5.08612H0.819072ZM5.08612 4.23296V1.33137C5.08612 1.19556 5.14006 1.06532 5.23609 0.969297C5.33212 0.87327 5.46236 0.819322 5.59816 0.819322H11.4013C11.5371 0.819322 11.6674 0.87327 11.7634 0.969297C11.8594 1.06532 11.9134 1.19556 11.9134 1.33137V4.23296H5.08612Z" stroke="white" stroke-width="1.6" stroke-linecap="round" stroke-linejoin="round"/>
<path d="M14.4734 4.40364V15.6687C14.4734 15.8045 14.4195 15.9347 14.3235 16.0307C14.2274 16.1268 12.2197 16.1807 12.0839 16.1807H5.42729C5.29149 16.1807 2.77172 16.1268 2.6757 16.0307C2.57967 15.9347 2.52572 15.8045 2.52572 15.6687V4.40364" stroke="white" stroke-width="1.6" stroke-linecap="round" stroke-linejoin="round"/>
</svg>
