<svg width="23" height="23" viewBox="0 0 23 23" fill="none" xmlns="http://www.w3.org/2000/svg">
<path d="M8.61765 4.29457L10.0588 5.73567L8.61765 4.29457ZM12.941 8.61788L14.3821 10.059L12.941 8.61788ZM17.2643 12.9412L18.7054 14.3823L17.2643 12.9412ZM1.41212 11.5001C1.02992 11.8823 0.815197 12.4007 0.815197 12.9412C0.815197 13.4817 1.02992 14.0001 1.41212 14.3823L3.57378 16.544C3.95599 16.1618 4.47437 15.947 5.01489 15.947C5.55541 15.947 6.07379 16.1618 6.45599 16.544C6.8382 16.9262 7.05292 17.4446 7.05292 17.9851C7.05292 18.5256 6.8382 19.044 6.45599 19.4262L8.61765 21.5878C8.99986 21.97 9.51824 22.1848 10.0588 22.1848C10.5993 22.1848 11.1177 21.97 11.4999 21.5878L21.5876 11.5001C21.9698 11.1179 22.1845 10.5995 22.1845 10.059C22.1845 9.51847 21.9698 9.00009 21.5876 8.61788L19.4259 6.45623C19.0437 6.83843 18.5254 7.05315 17.9848 7.05315C17.4443 7.05315 16.9259 6.83843 16.5437 6.45623C16.1615 6.07402 15.9468 5.55564 15.9468 5.01512C15.9468 4.4746 16.1615 3.95622 16.5437 3.57401L14.3821 1.41235C13.9999 1.03015 13.4815 0.815429 12.941 0.815429C12.4004 0.815429 11.8821 1.03015 11.4999 1.41235L1.41212 11.5001Z" stroke="white" stroke-width="1.6" stroke-linecap="round" stroke-linejoin="round"/>
</svg>
