<svg width="12" height="12" viewBox="0 0 12 12" fill="none" xmlns="http://www.w3.org/2000/svg">
<path fill-rule="evenodd" clip-rule="evenodd" d="M2.66667 11.5481H4V8.88139C4 8.35096 4.21071 7.84225 4.58579 7.46718C4.96086 7.0921 5.46957 6.88139 6 6.88139C6.53043 6.88139 7.03914 7.0921 7.41421 7.46718C7.78929 7.84225 8 8.35096 8 8.88139V11.5481H9.33333C10.0406 11.5481 10.7189 11.2671 11.219 10.767C11.719 10.2669 12 9.58863 12 8.88139V4.68606C11.9999 4.22765 11.8816 3.777 11.6566 3.37763C11.4316 2.97825 11.1074 2.64363 10.7153 2.40606L7.382 0.386055C6.96526 0.133519 6.48729 0 6 0C5.51271 0 5.03474 0.133519 4.618 0.386055L1.28467 2.40606C0.892525 2.64369 0.56828 2.97841 0.343246 3.37792C0.118211 3.77742 -9.54925e-06 4.2282 5.78527e-10 4.68672V8.88139C5.78528e-10 9.58863 0.280951 10.2669 0.781048 10.767C1.28115 11.2671 1.95942 11.5481 2.66667 11.5481Z" fill="#FD5F4A"/>
</svg>
