<svg width="8" height="16" viewBox="0 0 8 16" fill="none" xmlns="http://www.w3.org/2000/svg">
<path d="M7.99616 10.5793L7.9968 10.6407C7.99783 11.4902 7.69242 12.309 7.14112 12.9349L7.14304 12.9323C6.56877 13.5912 5.79213 14.0213 4.94657 14.1484L4.92673 14.1511V15.7246C4.92673 15.7977 4.89888 15.8677 4.84931 15.9193C4.79974 15.971 4.73251 16 4.66241 16H4.65153H4.65217H3.49569C3.42313 15.9991 3.35378 15.9687 3.30247 15.9153C3.25116 15.8618 3.22196 15.7896 3.22113 15.714V14.1511C2.83546 14.0974 2.45651 14.0004 2.09089 13.8617L2.12865 13.8744C1.58253 13.6841 1.07011 13.4016 0.611858 13.0383L0.624658 13.0483C0.484689 12.9428 0.350306 12.8295 0.222099 12.7089L0.226579 12.7129C0.155326 12.6418 0.105406 12.5885 0.076819 12.5529C0.0305497 12.505 0.00323169 12.4407 0.000268888 12.3728C-0.00269391 12.3049 0.0189143 12.2383 0.0608191 12.1862L0.0601791 12.1869L0.942737 10.9814C0.966185 10.9499 0.995879 10.9241 1.02979 10.9057C1.0637 10.8873 1.10103 10.8767 1.13922 10.8747H1.13986C1.17781 10.8674 1.21694 10.8711 1.25304 10.8853C1.28913 10.8995 1.32081 10.9238 1.34466 10.9554L1.3453 10.956L1.36194 10.9734C1.9406 11.5254 2.6488 11.9085 3.41505 12.0842L3.44449 12.0902C3.63521 12.1355 3.85409 12.1615 4.07873 12.1615L4.11841 12.1622C4.56065 12.1622 4.97025 12.0182 5.30753 11.7728L5.30049 11.7775C5.4706 11.6577 5.6084 11.4944 5.70072 11.3033C5.79305 11.1123 5.83681 10.8997 5.82785 10.686V10.6887C5.82785 10.5133 5.77985 10.35 5.69729 10.2119L5.69921 10.2159C5.62119 10.0783 5.52488 9.9528 5.41313 9.84323L5.41249 9.84256C5.26372 9.71257 5.10014 9.60217 4.92545 9.51386L4.91137 9.50719C4.68267 9.3854 4.49494 9.29005 4.34817 9.22115C4.2014 9.15226 3.97292 9.05558 3.66273 8.93112C3.44001 8.83599 3.26423 8.76154 3.13537 8.70776C3.00652 8.65397 2.83073 8.57507 2.60801 8.47106C2.38529 8.36705 2.20673 8.27481 2.07233 8.19436C1.93793 8.1139 1.77644 8.00833 1.58786 7.87765C1.42265 7.76676 1.26812 7.63948 1.12642 7.4976L1.12706 7.49827C0.998453 7.3627 0.87669 7.22027 0.762257 7.07155L0.753937 7.06088C0.63274 6.90783 0.532184 6.73824 0.455058 6.55682L0.449938 6.54282C0.375602 6.35867 0.316715 6.16815 0.273939 5.97341L0.269459 5.94941C0.220494 5.72587 0.196018 5.49727 0.196499 5.26799V5.25199V5.23199C0.196499 4.39855 0.517138 3.64246 1.03746 3.09172L1.03682 3.09239C1.61679 2.46423 2.37468 2.04619 3.19937 1.89957L3.22241 1.89624V0.286036V0.283369C3.22241 0.205359 3.25377 0.134684 3.30369 0.0846773C3.32836 0.057901 3.35798 0.036597 3.39075 0.0220455C3.42352 0.00749403 3.45878 -4.67234e-06 3.49441 2.18414e-09H4.66369C4.80961 2.18414e-09 4.92801 0.123349 4.92801 0.275368V0.286703V0.286036V1.85757C5.28001 1.89624 5.60129 1.96891 5.90912 2.07293L5.87521 2.06292C6.16896 2.15627 6.416 2.25828 6.65344 2.37696L6.62016 2.3623C6.83008 2.47098 7.00864 2.58232 7.1776 2.70634L7.1648 2.697C7.33547 2.82235 7.44683 2.90859 7.49888 2.9557C7.55093 3.00282 7.59381 3.04438 7.62752 3.08039C7.67356 3.12167 7.70333 3.17922 7.71113 3.24198C7.71892 3.30474 7.70419 3.36829 7.66976 3.42043L7.6704 3.41976L6.97792 4.72392C6.96064 4.76401 6.93323 4.79846 6.89863 4.82359C6.86403 4.84872 6.82352 4.86358 6.78144 4.86661H6.7808C6.74016 4.87541 6.69812 4.87434 6.65793 4.86347C6.61775 4.8526 6.58052 4.83223 6.54912 4.80393H6.54976C6.5327 4.78615 6.49131 4.75059 6.4256 4.69725C6.3599 4.64391 6.24854 4.56502 6.09153 4.46056C5.93918 4.35883 5.78078 4.2673 5.61729 4.18652L5.59041 4.17452C5.3934 4.08015 5.18863 4.0045 4.97857 3.94849L4.95169 3.94249C4.71311 3.87446 4.46688 3.83992 4.21953 3.83981H4.21889C3.74492 3.8172 3.2765 3.95369 2.88257 4.2292L2.89089 4.22386C2.67301 4.37468 2.51085 4.59823 2.43107 4.85777C2.35128 5.11732 2.35861 5.39741 2.45185 5.65204L2.44929 5.64404C2.50817 5.79072 2.59393 5.91474 2.70145 6.01408L2.70273 6.01475C2.80577 6.11543 2.91585 6.21211 3.03105 6.30212L3.04129 6.30945C3.17889 6.40813 3.33697 6.50081 3.50273 6.57816L3.52193 6.58616C3.73612 6.69017 3.90892 6.77062 4.04033 6.82752C4.17174 6.88442 4.37185 6.9662 4.64065 7.07288C4.94358 7.19201 5.17505 7.2858 5.33505 7.35425C5.49505 7.42271 5.71222 7.52694 5.98657 7.66696C6.21766 7.78002 6.44035 7.91084 6.6528 8.05834L6.63424 8.04634C6.83264 8.19302 7.00544 8.33971 7.16992 8.4964L7.16608 8.49239C7.34336 8.65375 7.4944 8.84044 7.61472 9.04913L7.62048 9.0598C7.72672 9.25516 7.81824 9.48252 7.8848 9.72055L7.89056 9.74322C7.96032 9.98658 8 10.2666 8 10.556V10.584V10.5827L7.99616 10.5793Z" fill="#252B5C"/>
</svg>
