<svg width="10" height="9" viewBox="0 0 10 9" fill="none" xmlns="http://www.w3.org/2000/svg">
<path d="M3.20757 2.91603L4.27413 0.716377C4.30517 0.652718 4.35292 0.599176 4.41202 0.561753C4.47112 0.52433 4.53923 0.504508 4.60871 0.504508C4.67819 0.504508 4.7463 0.52433 4.8054 0.561753C4.8645 0.599176 4.91225 0.652718 4.94329 0.716377L6.00985 2.91603L8.39421 3.27087C8.46299 3.28063 8.52769 3.31001 8.58095 3.35563C8.6342 3.40125 8.67386 3.46129 8.69539 3.52889C8.71693 3.59649 8.71947 3.66893 8.70273 3.73794C8.68598 3.80695 8.65063 3.86974 8.60071 3.91916L6.87566 5.63028L7.28291 8.04772C7.33504 8.35799 7.01483 8.59427 6.74101 8.44796L4.60871 7.30609L2.476 8.44796C2.20259 8.59469 1.88238 8.35799 1.93451 8.0473L2.34176 5.62986L0.616709 3.91874C0.567029 3.86929 0.531893 3.80655 0.515293 3.73767C0.498694 3.66879 0.501298 3.59651 0.522808 3.52907C0.544319 3.46162 0.583874 3.40171 0.636976 3.35614C0.690079 3.31057 0.754601 3.28118 0.823206 3.27129L3.20757 2.91603Z" fill="#FDB54A" stroke="#FDB54A" stroke-linecap="round" stroke-linejoin="round"/>
</svg>
