<svg width="6" height="8" viewBox="0 0 6 8" fill="none" xmlns="http://www.w3.org/2000/svg">
<path d="M6 3C6 4.65675 3 7.5 3 7.5C3 7.5 0 4.65675 0 3C0 2.20435 0.316071 1.44129 0.87868 0.87868C1.44129 0.316071 2.20435 0 3 0C3.79565 0 4.55871 0.316071 5.12132 0.87868C5.68393 1.44129 6 2.20435 6 3Z" fill="#FA712D"/>
<path d="M2.9998 3.2999C3.11915 3.2999 3.23361 3.25249 3.318 3.1681C3.40239 3.08371 3.4498 2.96925 3.4498 2.8499C3.4498 2.73055 3.40239 2.6161 3.318 2.5317C3.23361 2.44731 3.11915 2.3999 2.9998 2.3999C2.88046 2.3999 2.766 2.44731 2.68161 2.5317C2.59722 2.6161 2.5498 2.73055 2.5498 2.8499C2.5498 2.96925 2.59722 3.08371 2.68161 3.1681C2.766 3.25249 2.88046 3.2999 2.9998 3.2999Z" fill="#ECEDF3" stroke="#ECEDF3" stroke-width="1.25" stroke-linecap="round" stroke-linejoin="round"/>
</svg>
