<svg width="18" height="17" viewBox="0 0 18 17" fill="none" xmlns="http://www.w3.org/2000/svg">
<path d="M17.5859 6.61741C17.5662 6.52864 17.5276 6.44514 17.4729 6.37256C17.4181 6.29998 17.3484 6.24002 17.2684 6.19671L15.3792 5.14894C15.278 4.94359 15.164 4.74476 15.0379 4.55362L15.0776 2.39457C15.0783 2.30401 15.0604 2.21428 15.0249 2.13097C14.9894 2.04766 14.9371 1.97256 14.8712 1.91037C13.9306 1.05752 12.8182 0.416059 11.6089 0.0291469C11.522 0.00206739 11.4304 -0.00627462 11.3401 0.0046719C11.2498 0.0156184 11.1628 0.0456043 11.085 0.0926483L9.23549 1.20392C9.0053 1.19598 8.78305 1.19598 8.55285 1.20392L6.70338 0.0926483C6.62552 0.0456043 6.53856 0.0156184 6.44825 0.0046719C6.35794 -0.00627462 6.26634 0.00206739 6.17949 0.0291469C4.96857 0.416353 3.85569 1.0608 2.91711 1.91831C2.85071 1.97836 2.79793 2.05194 2.76233 2.13409C2.72673 2.21623 2.70914 2.30505 2.71073 2.39457L2.75042 4.55362C2.62342 4.74412 2.51229 4.94256 2.40116 5.14894L0.511999 6.19671C0.433195 6.24047 0.36475 6.3007 0.311328 6.3733C0.257906 6.44589 0.220763 6.52916 0.20243 6.61741C-0.0674765 7.85704 -0.0674765 9.14023 0.20243 10.3799C0.222146 10.4686 0.260697 10.5521 0.315475 10.6247C0.370252 10.6973 0.439978 10.7573 0.519936 10.8006L2.4091 11.8483C2.51037 12.0537 2.62437 12.2525 2.75042 12.4437L2.71073 14.6027C2.71001 14.6933 2.72796 14.783 2.76347 14.8663C2.79898 14.9496 2.85128 15.0247 2.91711 15.0869C3.85775 15.9397 4.97017 16.5812 6.17949 16.9681C6.26634 16.9952 6.35794 17.0035 6.44825 16.9926C6.53856 16.9817 6.62552 16.9517 6.70338 16.9046L8.55285 15.7934H9.23549L11.0929 16.9046C11.1895 16.9681 11.3028 17.0013 11.4184 16.9999C11.4829 16.9971 11.5469 16.9864 11.6089 16.9681C12.8198 16.5809 13.9327 15.9365 14.8712 15.079C14.9376 15.0189 14.9904 14.9453 15.026 14.8632C15.0616 14.781 15.0792 14.6922 15.0776 14.6027L15.0379 12.4437C15.1649 12.2532 15.2761 12.0547 15.3872 11.8483L17.2763 10.8006C17.3552 10.7568 17.4236 10.6966 17.477 10.624C17.5304 10.5514 17.5676 10.4681 17.5859 10.3799C17.8558 9.14023 17.8558 7.85704 17.5859 6.61741ZM16.3953 9.83216L14.5934 10.8323C14.4791 10.8987 14.3877 10.9984 14.3315 11.1181C14.2009 11.3886 14.0496 11.6487 13.879 11.896C13.8066 12.0069 13.768 12.1365 13.7679 12.269L13.7997 14.3249C13.1163 14.9068 12.3339 15.3611 11.4898 15.6663L9.71969 14.6027C9.6209 14.5452 9.50856 14.515 9.39425 14.5154H9.34662C9.04546 14.5392 8.74289 14.5392 8.44173 14.5154C8.31159 14.5083 8.18213 14.5386 8.06866 14.6027L6.29856 15.6663C5.45548 15.3626 4.6733 14.911 3.9887 14.3328L4.02045 12.269C4.0204 12.1365 3.98178 12.0069 3.90932 11.896C3.74164 11.6468 3.5905 11.387 3.45687 11.1181C3.39827 11 3.30746 10.9009 3.19493 10.8323L1.39308 9.83216C1.23428 8.95024 1.23428 8.04704 1.39308 7.16511L3.19493 6.16496C3.30924 6.09853 3.40061 5.99885 3.45687 5.87921C3.58746 5.60866 3.73873 5.34859 3.90932 5.10132C3.98178 4.99038 4.0204 4.86075 4.02045 4.72825L3.9887 2.67239C4.67209 2.0905 5.45447 1.63613 6.29856 1.33092L8.06866 2.39457C8.18179 2.45955 8.31151 2.48991 8.44173 2.48189C8.74289 2.45807 9.04546 2.45807 9.34662 2.48189C9.47676 2.48899 9.60622 2.45869 9.71969 2.39457L11.4898 1.33092C12.3329 1.63466 13.1151 2.08623 13.7997 2.66445L13.7679 4.72825C13.768 4.86075 13.8066 4.99038 13.879 5.10132C14.0467 5.35043 14.1979 5.61028 14.3315 5.87921C14.3901 5.99726 14.4809 6.09633 14.5934 6.16496L16.3953 7.16511C16.5541 8.04704 16.5541 8.95024 16.3953 9.83216ZM8.89417 4.05354C8.01502 4.05354 7.1556 4.31424 6.42461 4.80268C5.69362 5.29111 5.12388 5.98534 4.78744 6.79757C4.45101 7.60981 4.36298 8.50357 4.53449 9.36583C4.70601 10.2281 5.12936 11.0201 5.75102 11.6418C6.37268 12.2634 7.16472 12.6868 8.02698 12.8583C8.88924 13.0298 9.783 12.9418 10.5952 12.6054C11.4075 12.2689 12.1017 11.6992 12.5901 10.9682C13.0786 10.2372 13.3393 9.37779 13.3393 8.49864C13.3393 7.31972 12.8709 6.1891 12.0373 5.35548C11.2037 4.52186 10.0731 4.05354 8.89417 4.05354ZM8.89417 11.6737C8.26621 11.6737 7.65234 11.4875 7.1302 11.1386C6.60806 10.7897 6.20111 10.2938 5.96079 9.71368C5.72048 9.13351 5.6576 8.49511 5.78011 7.87921C5.90263 7.26331 6.20502 6.69757 6.64906 6.25353C7.0931 5.80948 7.65885 5.50709 8.27475 5.38458C8.89065 5.26207 9.52905 5.32494 10.1092 5.56526C10.6894 5.80557 11.1853 6.21253 11.5341 6.73466C11.883 7.2568 12.0692 7.87067 12.0692 8.49864C12.0692 9.34072 11.7347 10.1483 11.1393 10.7437C10.5438 11.3392 9.73625 11.6737 8.89417 11.6737Z" fill="#252B5C"/>
</svg>
