<svg width="17" height="17" viewBox="0 0 17 17" fill="none" xmlns="http://www.w3.org/2000/svg">
<path d="M4.2325 8.5H12.7668" stroke="#252B5C" stroke-width="1.6" stroke-linecap="round" stroke-linejoin="round"/>
<path d="M4.2325 5.0861H9.3531" stroke="#252B5C" stroke-width="1.6" stroke-linecap="round" stroke-linejoin="round"/>
<path d="M0.819096 15.575V2.52596C0.819096 2.07327 0.998926 1.63913 1.31903 1.31903C1.63913 0.998926 2.07327 0.819096 2.52596 0.819096H14.474C14.9267 0.819096 15.3609 0.998926 15.681 1.31903C16.0011 1.63913 16.1809 2.07327 16.1809 2.52596V11.0603C16.1809 11.513 16.0011 11.9471 15.681 12.2672C15.3609 12.5873 14.9267 12.7672 14.474 12.7672H5.05298C4.79715 12.7672 4.5446 12.8247 4.314 12.9355C4.08341 13.0463 3.88067 13.2075 3.72077 13.4072L1.73142 15.8941C1.66521 15.9771 1.57486 16.0375 1.47286 16.0668C1.37086 16.0962 1.26225 16.0932 1.16206 16.0581C1.06187 16.0231 0.975043 15.9577 0.913601 15.8712C0.852159 15.7846 0.819135 15.6811 0.819096 15.575V15.575Z" stroke="#252B5C" stroke-width="1.6"/>
</svg>
