<svg width="9" height="17" viewBox="0 0 9 17" fill="none" xmlns="http://www.w3.org/2000/svg">
<path d="M8.49616 11.0793L8.4968 11.1407C8.49783 11.9902 8.19242 12.809 7.64112 13.4349L7.64304 13.4323C7.06877 14.0912 6.29213 14.5213 5.44657 14.6484L5.42673 14.6511V16.2246C5.42673 16.2977 5.39888 16.3677 5.34931 16.4193C5.29974 16.471 5.23251 16.5 5.16241 16.5H5.15153H5.15217H3.99569C3.92313 16.4991 3.85378 16.4687 3.80247 16.4153C3.75116 16.3618 3.72196 16.2896 3.72113 16.214V14.6511C3.33546 14.5974 2.95651 14.5004 2.59089 14.3617L2.62865 14.3744C2.08253 14.1841 1.57011 13.9016 1.11186 13.5383L1.12466 13.5483C0.984689 13.4428 0.850306 13.3295 0.722099 13.2089L0.726579 13.2129C0.655326 13.1418 0.605406 13.0885 0.576819 13.0529C0.53055 13.005 0.503232 12.9407 0.500269 12.8728C0.497306 12.8049 0.518914 12.7383 0.560819 12.6862L0.560179 12.6869L1.44274 11.4814C1.46619 11.4499 1.49588 11.4241 1.52979 11.4057C1.5637 11.3873 1.60103 11.3767 1.63922 11.3747H1.63986C1.67781 11.3674 1.71694 11.3711 1.75304 11.3853C1.78913 11.3995 1.82081 11.4238 1.84466 11.4554L1.8453 11.456L1.86194 11.4734C2.4406 12.0254 3.1488 12.4085 3.91505 12.5842L3.94449 12.5902C4.13521 12.6355 4.35409 12.6615 4.57873 12.6615L4.61841 12.6622C5.06065 12.6622 5.47025 12.5182 5.80753 12.2728L5.80049 12.2775C5.9706 12.1577 6.1084 11.9944 6.20072 11.8033C6.29305 11.6123 6.33681 11.3997 6.32785 11.186V11.1887C6.32785 11.0133 6.27985 10.85 6.19729 10.7119L6.19921 10.7159C6.12119 10.5783 6.02488 10.4528 5.91313 10.3432L5.91249 10.3426C5.76372 10.2126 5.60014 10.1022 5.42545 10.0139L5.41137 10.0072C5.18267 9.8854 4.99494 9.79005 4.84817 9.72115C4.7014 9.65226 4.47292 9.55558 4.16273 9.43112C3.94001 9.33599 3.76423 9.26154 3.63537 9.20776C3.50652 9.15397 3.33073 9.07507 3.10801 8.97106C2.88529 8.86705 2.70673 8.77481 2.57233 8.69436C2.43793 8.6139 2.27644 8.50833 2.08786 8.37765C1.92265 8.26676 1.76812 8.13948 1.62642 7.9976L1.62706 7.99827C1.49845 7.8627 1.37669 7.72027 1.26226 7.57155L1.25394 7.56088C1.13274 7.40783 1.03218 7.23824 0.955058 7.05682L0.949938 7.04282C0.875602 6.85867 0.816715 6.66815 0.773939 6.47341L0.769459 6.44941C0.720494 6.22587 0.696018 5.99727 0.696499 5.76799V5.75199V5.73199C0.696499 4.89855 1.01714 4.14246 1.53746 3.59172L1.53682 3.59239C2.11679 2.96423 2.87468 2.54619 3.69937 2.39957L3.72241 2.39624V0.786036V0.783369C3.72241 0.705359 3.75377 0.634684 3.80369 0.584677C3.82836 0.557901 3.85798 0.536597 3.89075 0.522046C3.92352 0.507494 3.95878 0.499995 3.99441 0.5H5.16369C5.30961 0.5 5.42801 0.623349 5.42801 0.775368V0.786703V0.786036V2.35757C5.78001 2.39624 6.10129 2.46891 6.40912 2.57293L6.37521 2.56292C6.66896 2.65627 6.916 2.75828 7.15344 2.87696L7.12016 2.8623C7.33008 2.97098 7.50864 3.08232 7.6776 3.20634L7.6648 3.197C7.83547 3.32235 7.94683 3.40859 7.99888 3.4557C8.05093 3.50282 8.09381 3.54438 8.12752 3.58039C8.17356 3.62167 8.20333 3.67922 8.21113 3.74198C8.21892 3.80474 8.20419 3.86829 8.16976 3.92043L8.1704 3.91976L7.47792 5.22392C7.46064 5.26401 7.43323 5.29846 7.39863 5.32359C7.36403 5.34872 7.32352 5.36358 7.28144 5.36661H7.2808C7.24016 5.37541 7.19812 5.37434 7.15793 5.36347C7.11775 5.3526 7.08052 5.33223 7.04912 5.30393H7.04976C7.0327 5.28615 6.99131 5.25059 6.9256 5.19725C6.8599 5.14391 6.74854 5.06502 6.59153 4.96056C6.43918 4.85883 6.28078 4.7673 6.11729 4.68652L6.09041 4.67452C5.8934 4.58015 5.68863 4.5045 5.47857 4.44849L5.45169 4.44249C5.21311 4.37446 4.96688 4.33992 4.71953 4.33981H4.71889C4.24492 4.3172 3.7765 4.45369 3.38257 4.7292L3.39089 4.72386C3.17301 4.87468 3.01085 5.09823 2.93107 5.35777C2.85128 5.61732 2.85861 5.89741 2.95185 6.15204L2.94929 6.14404C3.00817 6.29072 3.09393 6.41474 3.20145 6.51408L3.20273 6.51475C3.30577 6.61543 3.41585 6.71211 3.53105 6.80212L3.54129 6.80945C3.67889 6.90813 3.83697 7.00081 4.00273 7.07816L4.02193 7.08616C4.23612 7.19017 4.40892 7.27062 4.54033 7.32752C4.67174 7.38442 4.87185 7.4662 5.14065 7.57288C5.44358 7.69201 5.67505 7.7858 5.83505 7.85425C5.99505 7.92271 6.21222 8.02694 6.48657 8.16696C6.71766 8.28002 6.94035 8.41084 7.1528 8.55834L7.13424 8.54634C7.33264 8.69302 7.50544 8.83971 7.66992 8.9964L7.66608 8.99239C7.84336 9.15375 7.9944 9.34044 8.11472 9.54913L8.12048 9.5598C8.22672 9.75516 8.31824 9.98252 8.3848 10.2205L8.39056 10.2432C8.46032 10.4866 8.5 10.7666 8.5 11.056V11.084V11.0827L8.49616 11.0793Z" fill="#11CF74" stroke="#11CF74" stroke-linejoin="round"/>
</svg>
