<svg width="8" height="8" viewBox="0 0 8 8" fill="none" xmlns="http://www.w3.org/2000/svg">
<path d="M2.63424 2.29483L3.67364 0.201616C3.7039 0.141038 3.75043 0.0900867 3.80802 0.0544751C3.86562 0.0188635 3.93199 0 3.9997 0C4.06742 0 4.13379 0.0188635 4.19139 0.0544751C4.24898 0.0900867 4.29551 0.141038 4.32577 0.201616L5.36517 2.29483L7.68882 2.63249C7.75585 2.64178 7.81891 2.66973 7.87081 2.71315C7.92271 2.75657 7.96135 2.8137 7.98234 2.87803C8.00332 2.94236 8.0058 3.01129 7.98948 3.07696C7.97317 3.14263 7.93872 3.20238 7.89006 3.24941L6.20894 4.87773L6.60581 7.17818C6.65662 7.47344 6.34456 7.69828 6.07771 7.55905L3.9997 6.47244L1.9213 7.55905C1.65485 7.69868 1.34279 7.47344 1.3936 7.17778L1.79047 4.87733L0.109345 3.24901C0.0609297 3.20195 0.0266878 3.14225 0.010511 3.0767C-0.00566575 3.01115 -0.00312844 2.94238 0.0178345 2.8782C0.0387974 2.81402 0.0773451 2.757 0.129096 2.71364C0.180847 2.67028 0.243725 2.6423 0.310584 2.63289L2.63424 2.29483Z" fill="#FFC42D"/>
</svg>
