<svg width="8" height="9" viewBox="0 0 8 9" fill="none" xmlns="http://www.w3.org/2000/svg">
<path d="M5.16129 1.29032V0.516129V1.29032ZM5.16129 1.29032V2.06452V1.29032ZM5.16129 1.29032H3.41935H5.16129ZM0.516129 3.6129V7.09677C0.516129 7.3021 0.597696 7.49902 0.742885 7.64421C0.888074 7.7894 1.08499 7.87097 1.29032 7.87097H6.70968C6.91501 7.87097 7.11193 7.7894 7.25711 7.64421C7.4023 7.49902 7.48387 7.3021 7.48387 7.09677V3.6129H0.516129Z" fill="#11CF74" stroke="#11CF74" stroke-linecap="round" stroke-linejoin="round"/>
<path d="M0.516129 3.6129V2.06452C0.516129 1.85919 0.597696 1.66227 0.742885 1.51708C0.888074 1.37189 1.08499 1.29032 1.29032 1.29032H2.06452" stroke="#11CF74" stroke-linecap="round" stroke-linejoin="round"/>
<path d="M2.06452 0.516129V2.06452" stroke="#11CF74" stroke-linecap="round" stroke-linejoin="round"/>
<path d="M7.48387 3.6129V2.06452C7.48387 1.85919 7.4023 1.66227 7.25711 1.51708C7.11193 1.37189 6.91501 1.29032 6.70968 1.29032H6.51613" stroke="#11CF74" stroke-linecap="round" stroke-linejoin="round"/>
</svg>
