<svg width="19" height="14" viewBox="0 0 19 14" fill="none" xmlns="http://www.w3.org/2000/svg">
<path d="M0.832171 4.29908H18.168M0.832171 4.29908V1.35199C0.832171 1.21406 0.886964 1.08178 0.984497 0.984243C1.08203 0.88671 1.21431 0.831917 1.35225 0.831917H17.6479C17.7859 0.831917 17.9181 0.88671 18.0157 0.984243C18.1132 1.08178 18.168 1.21406 18.168 1.35199V4.29908H0.832171ZM0.832171 4.29908V12.4469C0.832171 12.5849 0.886964 12.7171 0.984497 12.8147C1.08203 12.9122 1.21431 12.967 1.35225 12.967H17.6479C17.7859 12.967 17.9181 12.9122 18.0157 12.8147C18.1132 12.7171 18.168 12.5849 18.168 12.4469V4.29908H0.832171Z" stroke="white" stroke-width="1.6" stroke-linecap="round" stroke-linejoin="round"/>
</svg>
