<svg width="17" height="18" viewBox="0 0 17 18" fill="none" xmlns="http://www.w3.org/2000/svg">
<path d="M11.0603 2.52616V0.819296V2.52616ZM11.0603 2.52616V4.23303V2.52616ZM11.0603 2.52616H7.21985H11.0603ZM0.819096 7.64677V15.3277C0.819096 15.7804 0.998926 16.2145 1.31903 16.5346C1.63913 16.8547 2.07327 17.0345 2.52596 17.0345H14.474C14.9267 17.0345 15.3609 16.8547 15.681 16.5346C16.0011 16.2145 16.1809 15.7804 16.1809 15.3277V7.64677H0.819096Z" stroke="#252B5C" stroke-width="1.6" stroke-linecap="round" stroke-linejoin="round"/>
<path d="M0.819096 7.64676V4.23303C0.819096 3.78034 0.998926 3.34619 1.31903 3.02609C1.63913 2.70599 2.07327 2.52616 2.52596 2.52616H4.23283" stroke="#252B5C" stroke-width="1.6" stroke-linecap="round" stroke-linejoin="round"/>
<path d="M4.233 0.819296V4.23303" stroke="#252B5C" stroke-width="1.6" stroke-linecap="round" stroke-linejoin="round"/>
<path d="M16.1807 7.64676V4.23303C16.1807 3.78034 16.0009 3.34619 15.6808 3.02609C15.3607 2.70599 14.9266 2.52616 14.4739 2.52616H14.0472" stroke="#252B5C" stroke-width="1.6" stroke-linecap="round" stroke-linejoin="round"/>
</svg>
