<svg width="19" height="14" viewBox="0 0 19 14" fill="none" xmlns="http://www.w3.org/2000/svg">
<path d="M5.16621 4.29925L9.50017 7.33302L13.8341 4.29925" stroke="#252B5C" stroke-width="1.6" stroke-linecap="round" stroke-linejoin="round"/>
<path d="M0.831917 11.2337V2.56575C0.831917 2.10598 1.01456 1.66503 1.33967 1.33993C1.66478 1.01482 2.10572 0.832171 2.5655 0.832171H16.4342C16.8939 0.832171 17.3349 1.01482 17.66 1.33993C17.9851 1.66503 18.1677 2.10598 18.1677 2.56575V11.2337C18.1677 11.6934 17.9851 12.1344 17.66 12.4595C17.3349 12.7846 16.8939 12.9673 16.4342 12.9673H2.5655C2.10572 12.9673 1.66478 12.7846 1.33967 12.4595C1.01456 12.1344 0.831917 11.6934 0.831917 11.2337Z" stroke="#252B5C" stroke-width="1.6"/>
</svg>
