<svg width="15" height="19" viewBox="0 0 15 19" fill="none" xmlns="http://www.w3.org/2000/svg">
<path d="M14.3571 7.49999C14.3571 11.2868 7.49999 17.7857 7.49999 17.7857C7.49999 17.7857 0.642857 11.2868 0.642857 7.49999C0.642857 5.68137 1.3653 3.93723 2.65127 2.65127C3.93723 1.3653 5.68137 0.642857 7.49999 0.642857C9.31862 0.642857 11.0628 1.3653 12.3487 2.65127C13.6347 3.93723 14.3571 5.68137 14.3571 7.49999V7.49999Z" stroke="#53587A" stroke-width="1.25"/>
<path d="M7.49998 8.18588C7.77278 8.18588 8.0344 8.07751 8.22729 7.88461C8.42019 7.69172 8.52856 7.4301 8.52856 7.15731C8.52856 6.88451 8.42019 6.62289 8.22729 6.43C8.0344 6.2371 7.77278 6.12873 7.49998 6.12873C7.22719 6.12873 6.96557 6.2371 6.77268 6.43C6.57978 6.62289 6.47141 6.88451 6.47141 7.15731C6.47141 7.4301 6.57978 7.69172 6.77268 7.88461C6.96557 8.07751 7.22719 8.18588 7.49998 8.18588Z" fill="#53587A" stroke="#53587A" stroke-width="1.25" stroke-linecap="round" stroke-linejoin="round"/>
</svg>
