<svg width="35" height="33" viewBox="0 0 35 33" fill="none" xmlns="http://www.w3.org/2000/svg">
<path d="M11.5906 10.1623L15.9647 1.35354C16.092 1.09861 16.2879 0.884197 16.5302 0.734335C16.7726 0.584472 17.0519 0.505089 17.3369 0.505089C17.6218 0.505089 17.9011 0.584472 18.1435 0.734335C18.3859 0.884197 18.5817 1.09861 18.709 1.35354L23.0831 10.1623L32.8616 11.5833C33.1437 11.6224 33.4091 11.74 33.6275 11.9227C33.8459 12.1054 34.0085 12.3459 34.0968 12.6166C34.1851 12.8873 34.1955 13.1774 34.1269 13.4537C34.0582 13.7301 33.9132 13.9815 33.7085 14.1794L26.6339 21.0318L28.304 30.7127C28.5179 31.9552 27.2046 32.9014 26.0817 32.3155L17.3369 27.7428L8.59041 32.3155C7.46911 32.9031 6.15588 31.9552 6.3697 30.711L8.03986 21.0301L0.96524 14.1778C0.761497 13.9797 0.617398 13.7285 0.549322 13.4526C0.481247 13.1768 0.491924 12.8874 0.580141 12.6173C0.668359 12.3472 0.830577 12.1073 1.04836 11.9248C1.26614 11.7423 1.53075 11.6246 1.81211 11.585L11.5906 10.1623Z" fill="#FDB54A" stroke="#FDB54A" stroke-linecap="round" stroke-linejoin="round"/>
</svg>
