<svg width="14" height="17" viewBox="0 0 14 17" fill="none" xmlns="http://www.w3.org/2000/svg">
<path d="M13.6001 6.80007C13.6001 10.5554 6.80007 17.0002 6.80007 17.0002C6.80007 17.0002 0 10.5554 0 6.80007C0 4.99658 0.716434 3.26695 1.99169 1.99169C3.26695 0.716434 4.99658 0 6.80007 0C8.60356 0 10.3332 0.716434 11.6084 1.99169C12.8837 3.26695 13.6001 4.99658 13.6001 6.80007Z" fill="#FA712D"/>
<path d="M6.7999 7.48024C7.07042 7.48024 7.32987 7.37277 7.52116 7.18148C7.71244 6.9902 7.81991 6.73075 7.81991 6.46023C7.81991 6.18971 7.71244 5.93026 7.52116 5.73897C7.32987 5.54768 7.07042 5.44022 6.7999 5.44022C6.52938 5.44022 6.26993 5.54768 6.07864 5.73897C5.88736 5.93026 5.77989 6.18971 5.77989 6.46023C5.77989 6.73075 5.88736 6.9902 6.07864 7.18148C6.26993 7.37277 6.52938 7.48024 6.7999 7.48024Z" fill="#F5F4F8" stroke="#F5F4F8" stroke-width="1.25" stroke-linecap="round" stroke-linejoin="round"/>
</svg>
