<svg width="10" height="9" viewBox="0 0 10 9" fill="none" xmlns="http://www.w3.org/2000/svg">
<path d="M3.27356 2.9168L4.36611 0.716565C4.39791 0.65289 4.44683 0.599333 4.50737 0.561901C4.5679 0.524469 4.63767 0.504641 4.70885 0.504641C4.78002 0.504641 4.84979 0.524469 4.91033 0.561901C4.97087 0.599333 5.01978 0.65289 5.05158 0.716565L6.14413 2.9168L8.58659 3.27173C8.65704 3.2815 8.72332 3.31088 8.77788 3.35651C8.83243 3.40215 8.87305 3.4622 8.89511 3.52982C8.91717 3.59744 8.91977 3.6699 8.90262 3.73892C8.88547 3.80795 8.84926 3.87076 8.79812 3.92019L7.03103 5.63177L7.4482 8.04984C7.50161 8.36019 7.1736 8.59653 6.8931 8.45019L4.70885 7.30801L2.52417 8.45019C2.2441 8.59695 1.91608 8.36019 1.96949 8.04942L2.38666 5.63135L0.619576 3.91977C0.568686 3.87031 0.532693 3.80756 0.515689 3.73865C0.498685 3.66975 0.501352 3.59746 0.523387 3.53C0.545422 3.46254 0.58594 3.40261 0.640337 3.35703C0.694734 3.31145 0.760827 3.28204 0.831105 3.27215L3.27356 2.9168Z" fill="#FDB54A" stroke="#FDB54A" stroke-linecap="round" stroke-linejoin="round"/>
</svg>
