<svg width="17" height="19" viewBox="0 0 17 19" fill="none" xmlns="http://www.w3.org/2000/svg">
<path d="M0.819096 1.67282L16.1809 17.0346" stroke="#252B5C" stroke-width="1.6" stroke-linecap="round" stroke-linejoin="round"/>
<path d="M11.0603 8.07353V3.37965C11.0603 2.70061 10.7906 2.04939 10.3104 1.56924C9.83026 1.08909 9.17903 0.819346 8.5 0.819346C7.82097 0.819346 7.16974 1.08909 6.68959 1.56924C6.20944 2.04939 5.9397 2.70061 5.9397 3.37965V3.80636M5.9397 6.79338C5.9397 7.92511 6.38927 9.01048 7.18952 9.81073C7.98977 10.611 9.07514 11.0606 10.2069 11.0606V11.0606L5.9397 6.79338Z" stroke="#252B5C" stroke-width="1.6" stroke-linecap="round" stroke-linejoin="round"/>
<path d="M2.5258 7.64677V8.50021C2.5258 10.0846 3.1552 11.6041 4.27555 12.7245C5.3959 13.8448 6.91542 14.4742 8.49983 14.4742C10.0842 14.4742 11.6038 13.8448 12.7241 12.7245C13.8445 11.6041 14.4739 10.0846 14.4739 8.50021V7.64677" stroke="#252B5C" stroke-width="1.6" stroke-linecap="round" stroke-linejoin="round"/>
<path d="M8.5 17.8881H11.0603M8.5 14.4743V17.8881V14.4743ZM8.5 17.8881H5.9397H8.5Z" stroke="#252B5C" stroke-width="1.6" stroke-linecap="round" stroke-linejoin="round"/>
</svg>
