<svg width="16" height="18" viewBox="0 0 16 18" fill="none" xmlns="http://www.w3.org/2000/svg">
<path d="M6.12277 4.06884C6.21718 4.02388 6.32044 4.00059 6.42501 4.00065H10.8105C11.3298 4.00065 11.8142 4.03445 12.2568 4.10569C12.3807 4.12544 12.5039 4.14901 12.6263 4.17639C12.7998 4.21467 12.9713 4.26152 13.1401 4.31677C13.3577 4.38945 13.5604 4.47409 13.7466 4.5732C13.9662 3.17258 13.7451 2.22009 12.9878 1.35726C12.1538 0.407279 10.6477 0 8.72029 0H3.12593C2.73204 0 2.39696 0.286752 2.33523 0.675548L0.00604461 15.4473C-0.0402521 15.7391 0.18531 16.0025 0.480077 16.0025H3.93402L5.73343 4.59162C5.75113 4.47946 5.79581 4.37328 5.86363 4.28221C5.93145 4.19115 6.02038 4.11792 6.12277 4.06884Z" fill="white"/>
<path d="M13.6894 4.90081C12.952 8.68828 10.4276 9.99829 7.20369 9.99829H5.56213C5.16831 9.99829 4.83568 10.2851 4.77449 10.674L3.69549 17.5141C3.65518 17.769 3.85233 18 4.11025 18H7.02143C7.1882 18 7.34947 17.9404 7.47625 17.8321C7.60304 17.7238 7.68701 17.5738 7.71307 17.409L7.74142 17.2607L8.29011 13.7833L8.32546 13.5911C8.35152 13.4264 8.43548 13.2764 8.56225 13.1681C8.68902 13.0598 8.85028 13.0002 9.01704 13.0002H9.45273C12.2728 13.0002 14.481 11.8545 15.1263 8.54096C15.3956 7.15625 15.2563 6.00014 14.5437 5.1881C14.3276 4.94214 14.0592 4.73901 13.7466 4.5732C13.7297 4.68027 13.7113 4.78878 13.6894 4.90081Z" fill="white" fill-opacity="0.75"/>
<path d="M12.9745 4.2655C12.8595 4.23192 12.7434 4.2022 12.6265 4.17638C12.504 4.14945 12.3808 4.12603 12.257 4.10615C11.8139 4.03443 11.3299 4.00058 10.8101 4.00058H6.4251C6.32046 4.00034 6.21712 4.02384 6.12286 4.06931C6.02036 4.11824 5.93132 4.19142 5.86347 4.28251C5.79562 4.37361 5.751 4.47986 5.73347 4.59209L4.80143 10.5017L4.77452 10.6739C4.83583 10.2851 5.1684 9.99827 5.56228 9.99827H7.20383C10.4277 9.99827 12.952 8.6888 13.6894 4.90079C13.7114 4.78876 13.7298 4.6802 13.7467 4.57319C13.56 4.47461 13.3579 4.38944 13.1402 4.31724C13.0853 4.29903 13.03 4.28178 12.9745 4.2655" fill="white"/>
</svg>
