<svg width="19" height="14" viewBox="0 0 19 14" fill="none" xmlns="http://www.w3.org/2000/svg">
<path d="M0.832104 4.29907H18.1679M0.832104 4.29907V1.35199C0.832104 1.21405 0.886898 1.08177 0.98443 0.98424C1.08196 0.886707 1.21425 0.831914 1.35218 0.831914H17.6478C17.7857 0.831914 17.918 0.886707 18.0155 0.98424C18.1131 1.08177 18.1679 1.21405 18.1679 1.35199V4.29907H0.832104ZM0.832104 4.29907V12.4469C0.832104 12.5848 0.886898 12.7171 0.98443 12.8146C1.08196 12.9122 1.21425 12.967 1.35218 12.967H17.6478C17.7857 12.967 17.918 12.9122 18.0155 12.8146C18.1131 12.7171 18.1679 12.5848 18.1679 12.4469V4.29907H0.832104Z" stroke="#252B5C" stroke-width="1.6" stroke-linecap="round" stroke-linejoin="round"/>
</svg>
