<svg width="14" height="17" viewBox="0 0 14 17" fill="none" xmlns="http://www.w3.org/2000/svg">
<path fill-rule="evenodd" clip-rule="evenodd" d="M6.80007 17.0002C6.80007 17.0002 13.6001 10.5554 13.6001 6.80007C13.6001 4.99658 12.8837 3.26695 11.6084 1.99169C10.3332 0.716434 8.60356 0 6.80007 0C4.99658 0 3.26695 0.716434 1.99169 1.99169C0.716434 3.26695 0 4.99658 0 6.80007C0 10.5554 6.80007 17.0002 6.80007 17.0002ZM5.62805 5.28794C5.93889 4.9771 6.36049 4.80246 6.80009 4.80246C7.23969 4.80246 7.66128 4.9771 7.97213 5.28794C8.28297 5.59878 8.4576 6.02038 8.4576 6.45998C8.4576 6.89958 8.28297 7.32118 7.97213 7.63202C7.66128 7.94286 7.23969 8.1175 6.80009 8.1175C6.36049 8.1175 5.93889 7.94286 5.62805 7.63202C5.3172 7.32118 5.14257 6.89958 5.14257 6.45998C5.14257 6.02038 5.3172 5.59878 5.62805 5.28794Z" fill="white"/>
</svg>
