<svg width="8" height="15" viewBox="0 0 8 15" fill="none" xmlns="http://www.w3.org/2000/svg">
<path d="M4.17028 8.87178L4.17024 8.87177L4.16925 8.8798C4.14709 9.05953 4.0095 9.15907 3.88423 9.15907C3.6763 9.15907 3.54404 8.98089 3.56163 8.82786L2.7483 8.73437L3.56138 8.83003C3.60067 8.4961 3.67322 8.20679 3.81567 7.95241L3.81568 7.95241L3.81751 7.94911C4.04336 7.54141 4.38583 7.19468 4.82588 6.78628C4.87206 6.74341 4.91981 6.69947 4.96874 6.65445C5.3529 6.30095 5.81008 5.88026 6.15832 5.38265C6.6739 4.65066 6.77792 3.63689 6.40553 2.79104C6.00508 1.88147 5.10006 1.25362 3.81515 1.25362C2.57555 1.25362 1.75841 1.9219 1.28475 2.65759L1.28002 2.66494L1.27545 2.67239C1.25797 2.70084 1.22902 2.72615 1.17792 2.74051C1.12414 2.75562 1.05631 2.75428 0.991444 2.72899C0.914653 2.6947 0.857457 2.62877 0.832002 2.55138C0.80724 2.47611 0.818708 2.4138 0.84992 2.36632C1.45617 1.46767 2.4545 0.818688 3.7998 0.818688C5.33323 0.818688 6.29677 1.504 6.76971 2.2762C6.96628 2.59948 7.14103 3.10284 7.17528 3.65162C7.20919 4.19495 7.10274 4.72289 6.81348 5.15183C6.40267 5.75763 6.00271 6.1526 5.61532 6.52776C5.5953 6.54715 5.5751 6.56667 5.55473 6.58635C5.19543 6.93348 4.78687 7.32821 4.49466 7.86401C4.3332 8.15521 4.23032 8.42147 4.17028 8.87178ZM4.52383 13.0478C4.52383 13.44 4.1996 13.7642 3.80748 13.7642C3.41536 13.7642 3.09113 13.44 3.09113 13.0478C3.09113 12.6557 3.41536 12.3315 3.80748 12.3315C4.1996 12.3315 4.52383 12.6557 4.52383 13.0478Z" fill="white" stroke="white" stroke-width="1.6"/>
</svg>
