<svg width="24" height="8" viewBox="0 0 24 8" fill="none" xmlns="http://www.w3.org/2000/svg">
<path d="M9.11222 0.14128L5.97 7.87856H3.92006L2.37375 1.70348C2.28 1.32406 2.19853 1.18443 1.91325 1.02399C1.44694 0.762522 0.676875 0.517993 0 0.365875L0.0456562 0.14128H3.34603C3.76603 0.14128 4.14422 0.429935 4.24041 0.929735L5.05744 5.40742L7.07456 0.14128H9.11222ZM11.8835 0.14128L10.2801 7.87856H8.34056L9.94416 0.14128H11.8835ZM17.1443 5.35236C17.1524 3.31068 14.4093 3.19737 14.4272 2.28515C14.4338 2.00781 14.6897 1.71258 15.2499 1.6371C15.5274 1.60004 16.2941 1.57052 17.1625 1.98353L17.5023 0.34178C17.0357 0.1676 16.4352 0 15.6883 0C13.7711 0 12.4225 1.05108 12.4117 2.55735C12.3992 3.67153 13.375 4.29248 14.1089 4.66358C14.8648 5.04252 15.1183 5.28608 15.1148 5.62476C15.1094 6.14392 14.5111 6.37374 13.9549 6.38225C12.9795 6.39822 12.4141 6.11015 11.9631 5.89329L11.611 7.58942C12.0648 7.80405 12.901 7.99052 13.7672 8C15.8053 8 17.1383 6.96092 17.1443 5.35236ZM22.2068 7.87856H24L22.4334 0.14128H20.779C20.4059 0.14128 20.0923 0.364811 19.9532 0.70843L17.0432 7.87856H19.0797L19.4837 6.72277H21.9718L22.2068 7.87856ZM20.0422 5.13725L21.0633 2.23164L21.6499 5.13725H20.0422Z" fill="#1A1F71"/>
</svg>
