<svg width="14" height="13" viewBox="0 0 14 13" fill="none" xmlns="http://www.w3.org/2000/svg">
<path d="M4.50506 3.9246L6.28264 0.344803C6.33439 0.241203 6.41397 0.154066 6.51246 0.093163C6.61096 0.0322602 6.72447 0 6.84027 0C6.95608 0 7.06959 0.0322602 7.16809 0.093163C7.26658 0.154066 7.34616 0.241203 7.39791 0.344803L9.17549 3.9246L13.1494 4.50207C13.264 4.51797 13.3719 4.56577 13.4606 4.64002C13.5494 4.71427 13.6155 4.81198 13.6514 4.92199C13.6872 5.032 13.6915 5.14989 13.6636 5.2622C13.6357 5.3745 13.5768 5.4767 13.4935 5.55713L10.6185 8.34187L11.2972 12.2761C11.3841 12.781 10.8504 13.1656 10.3941 12.9275L6.84027 11.0691L3.28579 12.9275C2.83011 13.1662 2.29642 12.781 2.38332 12.2754L3.06206 8.34118L0.187001 5.55644C0.104202 5.47596 0.0456413 5.37387 0.0179759 5.26176C-0.00968954 5.14966 -0.00535025 5.03204 0.0305004 4.92228C0.0663511 4.81252 0.132275 4.71501 0.220779 4.64085C0.309283 4.56669 0.416818 4.51885 0.531159 4.50276L4.50506 3.9246Z" fill="#FFC42D"/>
</svg>
