<svg width="13" height="18" viewBox="0 0 13 18" fill="none" xmlns="http://www.w3.org/2000/svg">
<path d="M9 3.15572C9 1.77246 7.87864 0.651103 6.49538 0.651103C5.11212 0.651103 3.99076 1.77246 3.99076 3.15572V8.16496C3.99076 9.54823 5.11212 10.6696 6.49538 10.6696C7.87864 10.6696 9 9.54823 9 8.16496V3.15572Z" stroke="#A1A5C1" stroke-width="1.3"/>
<path d="M0.651103 7.32993V8.1648C0.651103 9.71476 1.26682 11.2012 2.3628 12.2972C3.45879 13.3932 4.94526 14.0089 6.49522 14.0089C8.04517 14.0089 9.53164 13.3932 10.6276 12.2972C11.7236 11.2012 12.3393 9.71476 12.3393 8.1648V7.32993" stroke="#A1A5C1" stroke-width="1.3" stroke-linecap="round" stroke-linejoin="round"/>
<path d="M6.49538 17.3487H9M6.49538 14.0092V17.3487V14.0092ZM6.49538 17.3487H3.99076H6.49538Z" stroke="#A1A5C1" stroke-width="1.3" stroke-linecap="round" stroke-linejoin="round"/>
</svg>
