<svg width="19" height="14" viewBox="0 0 19 14" fill="none" xmlns="http://www.w3.org/2000/svg">
<path d="M5.16609 4.29925L9.50004 7.33302L13.834 4.29925" stroke="#ECEDF3" stroke-width="1.6" stroke-linecap="round" stroke-linejoin="round"/>
<path d="M0.832107 11.2334V2.5655C0.832107 2.10572 1.01475 1.66478 1.33986 1.33967C1.66497 1.01456 2.10592 0.831917 2.56569 0.831917H16.4344C16.8941 0.831917 17.3351 1.01456 17.6602 1.33967C17.9853 1.66478 18.1679 2.10572 18.1679 2.5655V11.2334C18.1679 11.6932 17.9853 12.1341 17.6602 12.4592C17.3351 12.7844 16.8941 12.967 16.4344 12.967H2.56569C2.10592 12.967 1.66497 12.7844 1.33986 12.4592C1.01475 12.1341 0.832107 11.6932 0.832107 11.2334Z" stroke="#ECEDF3" stroke-width="1.6"/>
</svg>
