<svg width="22" height="21" viewBox="0 0 22 21" fill="none" xmlns="http://www.w3.org/2000/svg">
<path d="M7.52235 6.65808L10.1689 1.32831C10.2459 1.17407 10.3644 1.04433 10.5111 0.953658C10.6577 0.862983 10.8267 0.814952 10.9991 0.814952C11.1715 0.814952 11.3405 0.862983 11.4872 0.953658C11.6338 1.04433 11.7523 1.17407 11.8294 1.32831L14.4759 6.65808L20.3924 7.51785C20.5631 7.54152 20.7237 7.61268 20.8558 7.72323C20.988 7.83378 21.0864 7.97925 21.1398 8.14305C21.1932 8.30684 21.1995 8.48236 21.158 8.64956C21.1164 8.81677 21.0287 8.96893 20.9048 9.08867L16.6243 13.2347L17.6349 19.0922C17.7642 19.844 16.9696 20.4165 16.2902 20.062L10.9991 17.2952L5.70705 20.062C5.0286 20.4175 4.23403 19.844 4.3634 19.0912L5.37394 13.2337L1.09341 9.08765C0.97014 8.96782 0.882952 8.81582 0.841762 8.64891C0.800573 8.48201 0.807033 8.30689 0.86041 8.14347C0.913786 7.98006 1.01194 7.83489 1.14371 7.72447C1.27548 7.61406 1.43558 7.54283 1.60581 7.51887L7.52235 6.65808Z" stroke="white" stroke-width="1.6" stroke-linecap="round" stroke-linejoin="round"/>
</svg>
