<svg width="19" height="14" viewBox="0 0 19 14" fill="none" xmlns="http://www.w3.org/2000/svg">
<path d="M5.11808 4.24169L9.49999 7.30903L13.8819 4.24169" stroke="white" stroke-width="1.4" stroke-linecap="round" stroke-linejoin="round"/>
<path d="M0.736159 11.2527V2.48888C0.736159 2.02402 0.920825 1.57819 1.24953 1.24948C1.57824 0.920777 2.02406 0.736111 2.48893 0.736111H16.5111C16.9759 0.736111 17.4218 0.920777 17.7505 1.24948C18.0792 1.57819 18.2638 2.02402 18.2638 2.48888V11.2527C18.2638 11.7176 18.0792 12.1634 17.7505 12.4921C17.4218 12.8208 16.9759 13.0055 16.5111 13.0055H2.48893C2.02406 13.0055 1.57824 12.8208 1.24953 12.4921C0.920825 12.1634 0.736159 11.7176 0.736159 11.2527Z" stroke="white" stroke-width="1.4"/>
</svg>
