<svg width="17" height="15" viewBox="0 0 17 15" fill="none" xmlns="http://www.w3.org/2000/svg">
<path d="M1.05384 13.9462L0.497429 14.5026L1.05384 13.9462C0.891309 13.7836 0.8 13.5632 0.8 13.3333V5C0.8 4.77015 0.891309 4.54971 1.05384 4.38717C1.21637 4.22464 1.43681 4.13333 1.66667 4.13333H2.08333C2.46627 4.13333 2.84395 4.04418 3.18646 3.87292C3.52897 3.70167 3.8269 3.45302 4.05667 3.14667L5.81667 0.8H10.85L12.61 3.14667L13.25 2.66667L12.61 3.14667C12.8398 3.45302 13.1377 3.70167 13.4802 3.87292L13.838 3.15738L13.4802 3.87292C13.8227 4.04418 14.2004 4.13333 14.5833 4.13333H15C15.2299 4.13333 15.4503 4.22464 15.6128 4.38717C15.7754 4.54971 15.8667 4.77014 15.8667 5V13.3333C15.8667 13.5632 15.7754 13.7836 15.6128 13.9462C15.4503 14.1087 15.2299 14.2 15 14.2H1.66667C1.43681 14.2 1.21637 14.1087 1.05384 13.9462Z" stroke="#53587A" stroke-width="1.6" stroke-linecap="round" stroke-linejoin="round"/>
<path d="M10.1247 10.1247C9.64958 10.5998 9.00522 10.8667 8.33333 10.8667C7.66145 10.8667 7.01709 10.5998 6.542 10.1247C6.0669 9.64958 5.8 9.00522 5.8 8.33333C5.8 7.66145 6.0669 7.01709 6.542 6.542C7.01709 6.0669 7.66145 5.8 8.33333 5.8C9.00522 5.8 9.64958 6.0669 10.1247 6.542C10.5998 7.01709 10.8667 7.66145 10.8667 8.33333C10.8667 9.00522 10.5998 9.64958 10.1247 10.1247Z" stroke="#53587A" stroke-width="1.6" stroke-linecap="round" stroke-linejoin="round"/>
</svg>
