<svg width="11" height="11" viewBox="0 0 11 11" fill="none" xmlns="http://www.w3.org/2000/svg">
<path d="M3.79274 3.36849L5.09194 0.752088C5.12976 0.676369 5.18793 0.612682 5.25992 0.568169C5.3319 0.523656 5.41487 0.500078 5.49951 0.500078C5.58415 0.500078 5.66711 0.523656 5.7391 0.568169C5.81109 0.612682 5.86925 0.676369 5.90707 0.752088L7.20627 3.36849L10.1107 3.79056C10.1945 3.80218 10.2733 3.83711 10.3382 3.89138C10.4031 3.94565 10.4514 4.01706 10.4776 4.09747C10.5038 4.17788 10.5069 4.26404 10.4865 4.34612C10.4661 4.4282 10.4231 4.5029 10.3623 4.56168L8.26094 6.597L8.75701 9.47244C8.82052 9.8415 8.43046 10.1225 8.09691 9.94852L5.49951 8.59031L2.9016 9.94852C2.56855 10.123 2.17849 9.8415 2.242 9.47194L2.73808 6.5965L0.636753 4.56118C0.576237 4.50236 0.533436 4.42774 0.513216 4.3458C0.492996 4.26387 0.496167 4.1779 0.52237 4.09768C0.548572 4.01746 0.596755 3.94619 0.661441 3.89199C0.726127 3.83779 0.804722 3.80282 0.888292 3.79106L3.79274 3.36849Z" fill="#FDB54A" stroke="#FDB54A" stroke-linecap="round" stroke-linejoin="round"/>
</svg>
