<svg width="16" height="18" viewBox="0 0 16 18" fill="none" xmlns="http://www.w3.org/2000/svg">
<path d="M12.9877 1.35725C12.1543 0.407277 10.6476 0 8.72024 0H3.12639C2.93569 7.06107e-06 2.75125 0.0680413 2.60623 0.191871C2.4612 0.315701 2.36511 0.487203 2.33522 0.675545L0.00604426 15.4477C-0.0402522 15.739 0.185308 16.0028 0.480553 16.0028H3.934L4.80132 10.5016L4.7744 10.6739C4.83619 10.285 5.16876 9.99823 5.56258 9.99823H7.20365C10.4275 9.99823 12.9519 8.68877 13.6893 4.90078C13.7112 4.78875 13.7301 4.67971 13.7465 4.57318C13.6534 4.52389 13.6534 4.52389 13.7465 4.57318C13.9661 3.1731 13.745 2.22007 12.9877 1.35725Z" fill="#FA712D"/>
<path d="M6.12274 4.06882C6.21715 4.02386 6.32041 4.00057 6.42498 4.00063H10.8105C11.3298 4.00063 11.8141 4.03443 12.2568 4.10567C12.3806 4.12541 12.5039 4.14899 12.6262 4.17637C12.7997 4.21465 12.9712 4.2615 13.1401 4.31675C13.3577 4.38943 13.5603 4.47406 13.7466 4.57318C13.9661 3.17256 13.745 2.22007 12.9877 1.35725C12.1538 0.407277 10.6476 0 8.72024 0H3.12591C2.73203 0 2.39695 0.286751 2.33522 0.675545L0.00604458 15.4472C-0.0402519 15.739 0.185309 16.0024 0.480075 16.0024H3.934L5.7334 4.5916C5.7511 4.47944 5.79578 4.37326 5.8636 4.28219C5.93142 4.19113 6.02035 4.1179 6.12274 4.06882Z" fill="#003087"/>
<path d="M13.6893 4.901C12.9519 8.68845 10.4276 9.99845 7.20365 9.99845H5.5621C5.16828 9.99845 4.83566 10.2853 4.77447 10.6741L3.69547 17.5142C3.65516 17.7691 3.85231 18.0001 4.11023 18.0001H7.0214C7.18816 18.0001 7.34943 17.9406 7.47622 17.8322C7.603 17.7239 7.68697 17.5739 7.71303 17.4092L7.74139 17.2608L8.29006 13.7835L8.32541 13.5913C8.35147 13.4266 8.43544 13.2766 8.56221 13.1682C8.68898 13.0599 8.85024 13.0004 9.01699 13.0003H9.45268C12.2728 13.0003 14.4809 11.8546 15.1262 8.54113C15.3956 7.15642 15.2562 6.00033 14.5437 5.18829C14.3276 4.94233 14.0592 4.7392 13.7465 4.57339C13.7296 4.68046 13.7112 4.78896 13.6893 4.901Z" fill="#009CDE"/>
<path d="M12.9749 4.26536C12.8599 4.23178 12.7438 4.20206 12.6269 4.17623C12.5044 4.14931 12.3812 4.12589 12.2574 4.10601C11.8143 4.03429 11.3303 4.00044 10.8105 4.00044H6.42556C6.32091 4.0002 6.21757 4.0237 6.12332 4.06916C6.02081 4.1181 5.93178 4.19128 5.86393 4.28237C5.79608 4.37346 5.75146 4.47972 5.73393 4.59194L4.8019 10.5015L4.77498 10.6738C4.83629 10.2849 5.16886 9.9981 5.56274 9.9981H7.20429C10.4282 9.9981 12.9525 8.68864 13.6898 4.90065C13.7118 4.78861 13.7302 4.68005 13.7472 4.57304C13.5604 4.47447 13.3583 4.38929 13.1406 4.31709C13.0857 4.29889 13.0305 4.28164 12.9749 4.26536" fill="#012169"/>
</svg>
