<svg width="17" height="14" viewBox="0 0 17 14" fill="none" xmlns="http://www.w3.org/2000/svg">
<path fill-rule="evenodd" clip-rule="evenodd" d="M8.97437 3.05127C8.97437 2.25825 9.61724 1.61538 10.4103 1.61538C11.2033 1.61538 11.8462 2.25825 11.8462 3.05127C11.8462 3.8443 11.2033 4.48717 10.4103 4.48717C9.61724 4.48717 8.97437 3.8443 8.97437 3.05127ZM7.44411 3.76996L0.807681 3.76988C0.361606 3.76987 -5.35563e-06 3.40825 0 2.96218C5.35599e-06 2.5161 0.361625 2.15449 0.8077 2.1545L7.49287 2.15458C7.87587 0.907004 9.03714 0 10.4103 0C11.7831 0 12.9442 0.906681 13.3274 2.15391L15.5255 2.15371C15.9716 2.15367 16.3333 2.51525 16.3333 2.96133C16.3333 3.4074 15.9718 3.76905 15.5257 3.76909L13.3766 3.76929C13.0537 5.108 11.8481 6.10255 10.4103 6.10255C8.97264 6.10255 7.76723 5.10833 7.44411 3.76996Z" fill="#252B5C"/>
<path fill-rule="evenodd" clip-rule="evenodd" d="M7.35891 10.9487C7.35891 10.1557 6.71604 9.51284 5.92302 9.51284C5.13 9.51284 4.48713 10.1557 4.48713 10.9487C4.48713 11.7418 5.13 12.3846 5.92302 12.3846C6.71604 12.3846 7.35891 11.7418 7.35891 10.9487ZM8.88917 11.6674L15.5256 11.6673C15.9716 11.6673 16.3333 11.3057 16.3333 10.8596C16.3332 10.4136 15.9716 10.052 15.5256 10.052L8.84041 10.052C8.45741 8.80447 7.29614 7.89746 5.92302 7.89746C4.55015 7.89746 3.38904 8.80414 3.00584 10.0514L0.807711 10.0512C0.361636 10.0511 -1.15541e-05 10.4127 -5.39192e-05 10.8588C-9.43585e-05 11.3049 0.361488 11.6665 0.807564 11.6666L2.95671 11.6667C3.27959 13.0055 4.48516 14 5.92302 14C7.36064 14 8.56604 13.0058 8.88917 11.6674Z" fill="#252B5C"/>
</svg>
