<svg width="15" height="19" viewBox="0 0 15 19" fill="none" xmlns="http://www.w3.org/2000/svg">
<path d="M14.3575 7.50017C14.3575 11.2871 7.50017 17.7861 7.50017 17.7861C7.50017 17.7861 0.642871 11.2871 0.642871 7.50017C0.642871 5.6815 1.36533 3.93732 2.65133 2.65133C3.93732 1.36533 5.6815 0.642871 7.50017 0.642871C9.31884 0.642871 11.063 1.36533 12.349 2.65133C13.635 3.93732 14.3575 5.6815 14.3575 7.50017V7.50017Z" stroke="#53587A" stroke-width="1.25"/>
<path d="M7.5005 8.18581C7.7733 8.18581 8.03493 8.07744 8.22783 7.88454C8.42073 7.69165 8.5291 7.43002 8.5291 7.15722C8.5291 6.88442 8.42073 6.62279 8.22783 6.42989C8.03493 6.23699 7.7733 6.12862 7.5005 6.12862C7.2277 6.12862 6.96608 6.23699 6.77318 6.42989C6.58028 6.62279 6.47191 6.88442 6.47191 7.15722C6.47191 7.43002 6.58028 7.69165 6.77318 7.88454C6.96608 8.07744 7.2277 8.18581 7.5005 8.18581Z" fill="#53587A" stroke="#53587A" stroke-width="1.25" stroke-linecap="round" stroke-linejoin="round"/>
</svg>
