<svg width="18" height="18" viewBox="0 0 18 18" fill="none" xmlns="http://www.w3.org/2000/svg">
<path d="M13.3212 10.2778C13.4709 10.2488 13.6257 10.2622 13.7682 10.3165L16.6547 11.4162C16.972 11.5371 17.1817 11.8414 17.1817 12.181V14.8458C17.1817 16.206 15.9782 17.3286 14.5553 17.0196L14.5548 17.0195C12.2718 16.5222 8.00352 15.2536 5.00321 12.2533C2.12226 9.37231 1.1653 5.40603 0.844593 3.28137L13.3212 10.2778ZM13.3212 10.2778L10.5369 10.8174C8.8264 9.91874 7.80456 8.93078 7.17473 7.49472L7.70245 4.66422C7.72982 4.51744 7.71651 4.36598 7.66397 4.22623M13.3212 10.2778L7.66397 4.22623M7.66397 4.22623L6.5821 1.3487C6.46214 1.02963 6.15697 0.818334 5.81609 0.818334M7.66397 4.22623L5.81609 0.818334M5.81609 0.818334H3.02704M5.81609 0.818334H3.02704M3.02704 0.818334C1.74286 0.818334 0.636113 1.9038 0.844515 3.28086L3.02704 0.818334Z" stroke="#252B5C" stroke-width="1.6" stroke-linecap="round" stroke-linejoin="round"/>
</svg>
